<svg id="download-on-the-app-store-apple_1_" data-name="download-on-the-app-store-apple (1)" xmlns="http://www.w3.org/2000/svg" xmlns:xlink="http://www.w3.org/1999/xlink" width="207.557" height="62.344" viewBox="0 0 207.557 62.344">
  <defs>
    <linearGradient id="linear-gradient" x1="-1.199" y1="2.436" x2="-1.199" y2="1.535" gradientUnits="objectBoundingBox">
      <stop offset="0" stop-color="#1a1a1a" stop-opacity="0.102"/>
      <stop offset="0.123" stop-color="#212121" stop-opacity="0.153"/>
      <stop offset="0.308" stop-color="#353535" stop-opacity="0.227"/>
      <stop offset="0.532" stop-color="#575757" stop-opacity="0.318"/>
      <stop offset="0.783" stop-color="#858585" stop-opacity="0.42"/>
      <stop offset="1" stop-color="#b3b3b3" stop-opacity="0.51"/>
    </linearGradient>
  </defs>
  <path id="Path_130" data-name="Path 130" d="M208.373,57.157a6.012,6.012,0,0,1-1.728,4.224,5.852,5.852,0,0,1-4.17,1.747H9.467a5.939,5.939,0,0,1-5.906-5.971V9.54A5.947,5.947,0,0,1,9.467,3.561H202.474a5.938,5.938,0,0,1,5.9,5.979l0,47.617Z" transform="translate(-2.193 -2.173)" fill="#fff"/>
  <path id="Path_131" data-name="Path 131" d="M200.283,62.344H7.275A7.325,7.325,0,0,1,0,54.985V7.368A7.33,7.33,0,0,1,7.275,0H200.281a7.333,7.333,0,0,1,7.275,7.368V54.984a7.324,7.324,0,0,1-7.273,7.36Z" transform="translate(0 0)" fill="#a6a6a6"/>
  <path id="Path_132" data-name="Path 132" d="M208.373,57.157a6.012,6.012,0,0,1-1.728,4.224,5.852,5.852,0,0,1-4.17,1.747H9.467a5.939,5.939,0,0,1-5.906-5.971V9.54A5.947,5.947,0,0,1,9.467,3.561H202.474a5.938,5.938,0,0,1,5.9,5.979l0,47.617Z" transform="translate(-2.193 -2.173)"/>
  <path id="Path_133" data-name="Path 133" d="M77.863,46.026a9.047,9.047,0,0,1,4.247-7.583A9.093,9.093,0,0,0,74.917,34.5c-3.026-.323-5.961,1.835-7.5,1.835-1.572,0-3.946-1.8-6.5-1.751a9.561,9.561,0,0,0-8.061,4.983c-3.486,6.116-.886,15.1,2.454,20.048,1.671,2.423,3.623,5.125,6.178,5.029,2.5-.1,3.433-1.614,6.45-1.614,2.989,0,3.866,1.614,6.472,1.553,2.683-.042,4.372-2.432,5.984-4.875a20.108,20.108,0,0,0,2.737-5.648,8.726,8.726,0,0,1-5.261-8.035ZM72.941,31.25a8.975,8.975,0,0,0,2.009-6.375,8.9,8.9,0,0,0-5.781,3.031,8.537,8.537,0,0,0-2.061,6.139,7.347,7.347,0,0,0,5.833-2.8Z" transform="translate(-31.518 -15.182)" fill="#fff"/>
  <path id="Path_134" data-name="Path 134" d="M355.489,0H252.108L292.6,62.344h62.888a7.33,7.33,0,0,0,7.275-7.365V7.368A7.332,7.332,0,0,0,355.489,0Z" transform="translate(-155.206 0)" fill="url(#linear-gradient)"/>
  <g id="Group_75" data-name="Group 75" transform="translate(65.27 28.061)">
    <path id="Path_135" data-name="Path 135" d="M187.094,93.07H183.6l-1.914-6.094h-6.652l-1.823,6.094h-3.4L176.4,72.323h4.07Zm-5.984-8.651L179.38,79q-.275-.83-1.032-3.908h-.062q-.3,1.324-.972,3.908l-1.7,5.418Zm22.9.987a8.542,8.542,0,0,1-2.046,6.032,5.961,5.961,0,0,1-4.55,1.971,4.537,4.537,0,0,1-4.215-2.122v7.85h-3.28V83.027q0-2.4-.122-4.917h2.884l.183,2.371h.062a5.789,5.789,0,0,1,9.339-.588A8.346,8.346,0,0,1,204.013,85.406Zm-3.341.122a6.229,6.229,0,0,0-.972-3.6,3.346,3.346,0,0,0-2.855-1.476,3.383,3.383,0,0,0-2.2.815,3.79,3.79,0,0,0-1.291,2.141,4.4,4.4,0,0,0-.152,1.012v2.5a4.034,4.034,0,0,0,.988,2.756,3.259,3.259,0,0,0,2.566,1.124,3.347,3.347,0,0,0,2.884-1.447A6.431,6.431,0,0,0,200.671,85.528Zm20.319-.122a8.542,8.542,0,0,1-2.046,6.032,5.964,5.964,0,0,1-4.552,1.971,4.537,4.537,0,0,1-4.215-2.122v7.85H206.9V83.027q0-2.4-.122-4.917h2.884l.183,2.371h.062a5.79,5.79,0,0,1,9.34-.588,8.354,8.354,0,0,1,1.744,5.513Zm-3.343.122a6.23,6.23,0,0,0-.974-3.6,3.341,3.341,0,0,0-2.852-1.476,3.4,3.4,0,0,0-2.2.815,3.788,3.788,0,0,0-1.289,2.141,4.5,4.5,0,0,0-.154,1.012v2.5a4.048,4.048,0,0,0,.986,2.756,3.266,3.266,0,0,0,2.569,1.124,3.343,3.343,0,0,0,2.884-1.447A6.431,6.431,0,0,0,217.648,85.528Zm22.325,1.723a5.577,5.577,0,0,1-1.82,4.311,8,8,0,0,1-5.576,1.816,9.631,9.631,0,0,1-5.3-1.292l.758-2.77a9.032,9.032,0,0,0,4.738,1.294,4.429,4.429,0,0,0,2.884-.847,2.78,2.78,0,0,0,1.035-2.261,2.917,2.917,0,0,0-.852-2.125,7.875,7.875,0,0,0-2.824-1.6q-5.376-2.032-5.378-5.943a5.277,5.277,0,0,1,1.9-4.186,7.441,7.441,0,0,1,5.027-1.632A9.823,9.823,0,0,1,239.21,73l-.823,2.71a8.038,8.038,0,0,0-3.933-.954,3.964,3.964,0,0,0-2.714.862,2.482,2.482,0,0,0-.823,1.88,2.555,2.555,0,0,0,.943,2.031,10.58,10.58,0,0,0,2.975,1.6,10.074,10.074,0,0,1,3.887,2.523,5.3,5.3,0,0,1,1.251,3.6ZM250.844,80.6h-3.615v7.264q0,2.771,1.914,2.769a5.687,5.687,0,0,0,1.457-.154l.091,2.524a7.339,7.339,0,0,1-2.55.368,3.9,3.9,0,0,1-3.038-1.2,5.951,5.951,0,0,1-1.094-4.033V80.6h-2.154V78.1h2.154V75.365l3.221-.985V78.1h3.615Zm16.278,4.863a8.275,8.275,0,0,1-1.944,5.664,6.887,6.887,0,0,1-5.406,2.278,6.565,6.565,0,0,1-5.179-2.183,8.022,8.022,0,0,1-1.929-5.51,8.207,8.207,0,0,1,1.989-5.694,6.85,6.85,0,0,1,5.362-2.217,6.7,6.7,0,0,1,5.223,2.186A7.919,7.919,0,0,1,267.122,85.467Zm-3.4.076a6.77,6.77,0,0,0-.878-3.53,3.24,3.24,0,0,0-2.947-1.782,3.286,3.286,0,0,0-3.007,1.782,6.882,6.882,0,0,0-.88,3.592,6.75,6.75,0,0,0,.88,3.531,3.342,3.342,0,0,0,5.927-.03,6.8,6.8,0,0,0,.906-3.564Zm14.065-4.51a5.633,5.633,0,0,0-1.034-.092,3.081,3.081,0,0,0-2.674,1.325,5.041,5.041,0,0,0-.818,2.954v7.85h-3.28V82.821q0-2.356-.1-4.71h2.857l.12,2.862h.091a5.132,5.132,0,0,1,1.64-2.371,3.931,3.931,0,0,1,2.371-.8,5.2,5.2,0,0,1,.82.061Zm14.668,3.849a7.9,7.9,0,0,1-.12,1.508H282.5a4.366,4.366,0,0,0,1.428,3.389,4.839,4.839,0,0,0,3.218,1.045,10.752,10.752,0,0,0,3.981-.706l.514,2.306a12.164,12.164,0,0,1-4.949.924,7.122,7.122,0,0,1-5.393-2.045,7.623,7.623,0,0,1-1.958-5.494,8.645,8.645,0,0,1,1.824-5.631,6.252,6.252,0,0,1,5.161-2.4,5.477,5.477,0,0,1,4.832,2.4A8.154,8.154,0,0,1,292.455,84.882Zm-3.127-.862a4.547,4.547,0,0,0-.637-2.555,2.854,2.854,0,0,0-2.612-1.388,3.1,3.1,0,0,0-2.61,1.355,5,5,0,0,0-.971,2.585Z" transform="translate(-169.812 -72.016)" fill="#fff"/>
  </g>
  <g id="Group_76" data-name="Group 76" transform="translate(67.189 10.216)">
    <path id="Path_136" data-name="Path 136" d="M177.165,37.036a20.667,20.667,0,0,1-2.358-.122V26.883a17.621,17.621,0,0,1,2.777-.212c3.761,0,5.493,1.876,5.493,4.933C183.076,35.131,181.03,37.036,177.165,37.036Zm.551-9.078a6.494,6.494,0,0,0-1.3.106v7.625a8.4,8.4,0,0,0,1.089.045c2.464,0,3.867-1.422,3.867-4.085C181.373,29.275,180.1,27.958,177.715,27.958Zm10.759,9.155a3.48,3.48,0,0,1-3.493-3.782,3.56,3.56,0,0,1,3.613-3.888,3.452,3.452,0,0,1,3.493,3.768,3.581,3.581,0,0,1-3.613,3.9Zm.062-6.476c-1.164,0-1.911,1.1-1.911,2.647,0,1.514.761,2.618,1.9,2.618s1.9-1.18,1.9-2.649C190.415,31.755,189.669,30.636,188.536,30.636Zm15.64-1.043-2.269,7.352h-1.478l-.94-3.193q-.351-1.171-.583-2.374h-.031a16.091,16.091,0,0,1-.581,2.374l-1,3.193H195.8l-2.135-7.352h1.657l.821,3.5q.291,1.249.492,2.36h.031c.118-.619.312-1.392.6-2.345l1.031-3.509h1.314l.986,3.435c.238.833.432,1.649.583,2.421h.043a21.417,21.417,0,0,1,.492-2.421l.881-3.435,1.583,0Zm8.353,7.352h-1.612V32.723c0-1.3-.492-1.952-1.463-1.952a1.688,1.688,0,0,0-1.612,1.8v4.373h-1.612V31.695c0-.65-.015-1.347-.06-2.1h1.418l.075,1.135h.045a2.6,2.6,0,0,1,2.3-1.285c1.523,0,2.523,1.18,2.523,3.1Zm4.446,0H215.36V26.219h1.614Zm5.878.167a3.48,3.48,0,0,1-3.493-3.782,3.56,3.56,0,0,1,3.612-3.888,3.451,3.451,0,0,1,3.493,3.768,3.58,3.58,0,0,1-3.612,3.9Zm.06-6.476c-1.164,0-1.911,1.1-1.911,2.647,0,1.514.763,2.618,1.894,2.618s1.9-1.18,1.9-2.649C224.792,31.755,224.047,30.636,222.912,30.636Zm9.908,6.309L232.7,36.1h-.043a2.465,2.465,0,0,1-2.121,1.013,2.123,2.123,0,0,1-2.223-2.164c0-1.815,1.552-2.753,4.24-2.753v-.136a1.31,1.31,0,0,0-1.506-1.453,3.361,3.361,0,0,0-1.9.546l-.328-1.074a4.589,4.589,0,0,1,2.491-.636c1.9,0,2.852,1.013,2.852,3.042v2.708a11.257,11.257,0,0,0,.1,1.755Zm-.222-3.662c-1.791,0-2.689.44-2.689,1.483a1.035,1.035,0,0,0,1.106,1.149,1.553,1.553,0,0,0,1.583-1.5Zm9.4,3.662-.075-1.18h-.045a2.427,2.427,0,0,1-2.329,1.347c-1.749,0-3.044-1.559-3.044-3.753,0-2.3,1.343-3.919,3.177-3.919a2.171,2.171,0,0,1,2.046,1h.032v-4.22h1.614v8.745c0,.711.017,1.377.06,1.982H242Zm-.238-4.326a1.77,1.77,0,0,0-1.7-1.907c-1.2,0-1.926,1.074-1.926,2.586,0,1.483.758,2.5,1.894,2.5a1.825,1.825,0,0,0,1.731-1.952V32.619ZM253.6,37.112a3.479,3.479,0,0,1-3.492-3.782,3.56,3.56,0,0,1,3.612-3.888,3.451,3.451,0,0,1,3.493,3.768,3.58,3.58,0,0,1-3.613,3.9Zm.06-6.476c-1.163,0-1.909,1.1-1.909,2.647,0,1.514.761,2.618,1.894,2.618s1.9-1.18,1.9-2.649C255.547,31.755,254.8,30.636,253.664,30.636Zm12.223,6.309h-1.614V32.723c0-1.3-.492-1.952-1.463-1.952a1.687,1.687,0,0,0-1.611,1.8v4.373h-1.614V31.695c0-.65-.015-1.347-.06-2.1h1.418l.075,1.135h.045a2.6,2.6,0,0,1,2.3-1.286c1.523,0,2.524,1.18,2.524,3.1Zm10.847-6.127H274.96v3.57c0,.909.311,1.363.938,1.363a3.134,3.134,0,0,0,.715-.076l.045,1.241a3.527,3.527,0,0,1-1.251.182c-1.271,0-2.031-.711-2.031-2.572V30.818h-1.058V29.593h1.058V28.246l1.583-.485v1.83h1.774v1.227Zm8.534,6.127h-1.611V32.755c0-1.316-.491-1.982-1.463-1.982a1.593,1.593,0,0,0-1.614,1.74v4.432H278.97V26.219h1.611v4.417h.032a2.438,2.438,0,0,1,2.181-1.2c1.535,0,2.474,1.21,2.474,3.132v4.373Zm8.744-3.283h-4.838a2.094,2.094,0,0,0,2.286,2.178,5.384,5.384,0,0,0,1.955-.348l.251,1.135a5.985,5.985,0,0,1-2.434.454,3.391,3.391,0,0,1-3.612-3.706c0-2.254,1.375-3.949,3.43-3.949,1.854,0,3.017,1.392,3.017,3.5a3.193,3.193,0,0,1-.055.741ZM292.533,32.5c0-1.135-.565-1.936-1.6-1.936a1.927,1.927,0,0,0-1.763,1.936Z" transform="translate(-174.806 -26.219)" fill="#fff"/>
  </g>
</svg>
