<svg xmlns="http://www.w3.org/2000/svg" width="40" height="40" viewBox="0 0 40 40">
  <g id="Group_18261" data-name="Group 18261" transform="translate(0.197 -0.199)">
    <circle id="Ellipse_347" data-name="Ellipse 347" cx="20" cy="20" r="20" transform="translate(-0.197 0.199)" fill="#0ea74b"/>
    <rect id="Rectangle_4791" data-name="Rectangle 4791" width="22.211" height="22.211" transform="translate(9.148 8.398)" fill="none"/>
    <g id="Check" transform="translate(8.371 13.935)">
      <g id="Path_18070" data-name="Path 18070" transform="translate(0 -7.939)" fill="#fff">
        <path d="M 7.625125408172607 22.56266403198242 C 7.210745811462402 22.56266403198242 6.820765495300293 22.4012336730957 6.527035713195801 22.10810279846191 L 0.2047456204891205 15.785813331604 C -0.08856438100337982 15.49190330505371 -0.2499943822622299 15.10175323486328 -0.2499943822622299 14.68705368041992 C -0.2499943822622299 14.27266311645508 -0.08856438100337982 13.88269329071045 0.2045656144618988 13.58896350860596 C 0.4992956221103668 13.29483318328857 0.8894556164741516 13.13304328918457 1.303515672683716 13.13304328918457 C 1.717635631561279 13.13304328918457 2.107895612716675 13.29459381103516 2.40241551399231 13.5879430770874 L 7.62511157989502 18.81208419799805 L 19.80094528198242 8.149173736572266 C 20.10763549804688 7.848076820373535 20.4897346496582 7.689003467559814 20.90652656555176 7.689003467559814 C 21.32122611999512 7.689003467559814 21.71155548095703 7.850613594055176 22.00560569763184 8.144063949584961 C 22.29915618896484 8.438803672790527 22.46053504943848 8.828893661499023 22.46053504943848 9.243003845214844 C 22.46053504943848 9.657383918762207 22.29909515380859 10.04735374450684 22.00596618652344 10.34109306335449 L 22.00053596496582 10.34652328491211 L 21.99478530883789 10.35161304473877 L 8.730392456054688 22.10331535339355 C 8.425045013427734 22.40383911132813 8.042995452880859 22.56266403198242 7.625125408172607 22.56266403198242 Z" stroke="none"/>
        <path d="M 7.625125408172607 22.31266403198242 C 7.978515625 22.31266403198242 8.303775787353516 22.17446327209473 8.559445381164551 21.92077445983887 L 21.82900619506836 10.16449356079102 C 22.07479476928711 9.918203353881836 22.21053504943848 9.590473175048828 22.21053504943848 9.243003845214844 C 22.21053504943848 8.895533561706543 22.07479476928711 8.567803382873535 21.82900619506836 8.321023941040039 C 21.58221626281738 8.074733734130859 21.25448608398438 7.939003467559814 20.90652656555176 7.939003467559814 C 20.55461502075195 7.939003467559814 20.22885513305664 8.077193260192871 19.97121620178223 8.33237361907959 L 7.613765716552734 19.15433311462402 L 2.225985527038574 13.76507377624512 C 1.978715658187866 13.51878356933594 1.650985598564148 13.38304328918457 1.303515672683716 13.38304328918457 C 0.9560456275939941 13.38304328918457 0.6288056373596191 13.51878356933594 0.3815256059169769 13.76556396484375 C 0.1357356160879135 14.01185321807861 5.617370788968401e-06 14.33909320831299 5.617370788968401e-06 14.68705368041992 C 5.617370788968401e-06 15.03501319885254 0.1357356160879135 15.36274337768555 0.3815256059169769 15.60903358459473 L 6.703625679016113 21.93114280700684 C 6.949925422668457 22.17693328857422 7.27715539932251 22.31266403198242 7.625125408172607 22.31266403198242 M 7.625125408172607 22.81266403198242 C 7.144065380096436 22.81266403198242 6.691375732421875 22.62529373168945 6.350435733795166 22.28506278991699 L 0.02797561697661877 15.96258354187012 C -0.3126243948936462 15.62130355834961 -0.4999943971633911 15.16843318939209 -0.4999943971633911 14.68705368041992 C -0.4999943971633911 14.20598316192627 -0.3126243948936462 13.75329303741455 0.02761561796069145 13.41237354278564 C 0.3698956072330475 13.07077312469482 0.822765588760376 12.88304328918457 1.303515672683716 12.88304328918457 C 1.784225583076477 12.88304328918457 2.237145662307739 13.07047367095947 2.578835725784302 13.41082382202148 L 7.636456489562988 18.46983337402344 L 19.63110160827637 7.965597629547119 C 19.97990417480469 7.625871658325195 20.43217468261719 7.439003467559814 20.90652656555176 7.439003467559814 C 21.38790512084961 7.439003467559814 21.84095573425293 7.626553535461426 22.18219566345215 7.967113494873047 C 22.52328491210938 8.309563636779785 22.71053504943848 8.762303352355957 22.71053504943848 9.243003845214844 C 22.71053504943848 9.724063873291016 22.52315521240234 10.17675304412842 22.18291473388672 10.51768398284912 L 22.17206573486328 10.52855396270752 L 22.16057586669922 10.53874397277832 L 8.900864601135254 22.28629684448242 C 8.553291320800781 22.62584495544434 8.100836753845215 22.81266403198242 7.625125408172607 22.81266403198242 Z" stroke="none" fill="#fff"/>
      </g>
    </g>
  </g>
</svg>
