<svg xmlns="http://www.w3.org/2000/svg" width="33" height="33" viewBox="0 0 33 33">
  <g id="Group_18347" data-name="Group 18347" transform="translate(0.191 0.353)">
    <rect id="Rectangle_4962" data-name="Rectangle 4962" width="33" height="33" transform="translate(-0.191 -0.353)" fill="#0e8be8"/>
    <g id="Group_18116" data-name="Group 18116" transform="translate(7.603 8.294)">
      <rect id="Rectangle_4791" data-name="Rectangle 4791" width="19" height="19" transform="translate(0.205 0.353)" fill="none"/>
      <g id="Check" transform="translate(0 2.731)">
        <g id="Path_18070" data-name="Path 18070" transform="translate(0 -7.939)" fill="#fff">
          <path d="M 6.179599761962891 19.83779907226563 C 5.831130027770996 19.83779907226563 5.503190040588379 19.70204925537109 5.256199836730957 19.4555492401123 L 0.1324200034141541 14.33177947998047 C -0.1142499968409538 14.08460903167725 -0.25 13.75652885437012 -0.25 13.40779876708984 C -0.25 13.05932903289795 -0.1142499968409538 12.73138904571533 0.1322499960660934 12.48439884185791 C 0.3801099956035614 12.23703956604004 0.7081800103187561 12.100998878479 1.056399941444397 12.100998878479 C 1.404639959335327 12.100998878479 1.732789993286133 12.23682880401611 1.980419993400574 12.48346900939941 L 6.181745529174805 16.68594932556152 L 16.01498985290527 8.074544906616211 C 16.26891899108887 7.825850486755371 16.59822845458984 7.688999176025391 16.94319915771484 7.688999176025391 C 17.29192924499512 7.688999176025391 17.62014961242676 7.824889183044434 17.86739921569824 8.071649551391602 C 18.11430931091309 8.319549560546875 18.25 8.64755916595459 18.25 8.99579906463623 C 18.25 9.344268798828125 18.11425018310547 9.672208786010742 17.86775016784668 9.919198989868164 L 17.86232948303223 9.924629211425781 L 17.85658073425293 9.929718971252441 L 7.107691764831543 19.45279121398926 C 6.854829788208008 19.70112419128418 6.525518894195557 19.83779907226563 6.179599761962891 19.83779907226563 Z" stroke="none"/>
          <path d="M 6.179599761962891 19.58779907226563 C 6.466000080108643 19.58779907226563 6.729599952697754 19.47579956054688 6.936800003051758 19.27019882202148 L 17.69079971313477 9.742599487304688 C 17.88999938964844 9.542999267578125 18 9.277399063110352 18 8.99579906463623 C 18 8.714199066162109 17.88999938964844 8.448598861694336 17.69079971313477 8.248599052429199 C 17.49080085754395 8.048998832702637 17.22520065307617 7.938999176025391 16.94319915771484 7.938999176025391 C 16.65800094604492 7.938999176025391 16.39399909973145 8.050998687744141 16.18519973754883 8.25779914855957 L 6.170400142669678 17.0281982421875 L 1.804000020027161 12.66059875488281 C 1.603600025177002 12.46099948883057 1.338000059127808 12.350998878479 1.056399941444397 12.350998878479 C 0.7748000025749207 12.350998878479 0.5095999836921692 12.46099948883057 0.3091999888420105 12.6609992980957 C 0.1099999994039536 12.86059951782227 0 13.12579917907715 0 13.40779876708984 C 0 13.68979930877686 0.1099999994039536 13.95539951324463 0.3091999888420105 14.15499877929688 L 5.432799816131592 19.27859878540039 C 5.632400035858154 19.47779846191406 5.897600173950195 19.58779907226563 6.179599761962891 19.58779907226563 M 6.179599761962891 20.08779907226563 C 5.764440059661865 20.08779907226563 5.37378978729248 19.92610931396484 5.079599857330322 19.63250923156738 L -0.04434999823570251 14.50854873657227 C -0.3383100032806396 14.21400928497314 -0.5 13.82320880889893 -0.5 13.40779876708984 C -0.5 12.99263954162598 -0.3383100032806396 12.60198879241943 -0.04470999911427498 12.30779933929443 C 0.2506999969482422 12.01297950744629 0.6414999961853027 11.850998878479 1.056399941444397 11.850998878479 C 1.471230030059814 11.850998878479 1.862040042877197 12.01270866394043 2.156850099563599 12.30633926391602 L 6.19309139251709 16.34369850158691 L 15.84525108337402 7.890878677368164 C 16.1454963684082 7.599320888519287 16.53472518920898 7.438999176025391 16.94319915771484 7.438999176025391 C 17.35861015319824 7.438999176025391 17.74954986572266 7.600829124450684 18.04400062561035 7.894689083099365 C 18.33843040466309 8.190309524536133 18.5 8.580979347229004 18.5 8.99579906463623 C 18.5 9.410959243774414 18.33831024169922 9.801609039306641 18.04471015930176 10.09579944610596 L 18.03385925292969 10.10666942596436 L 18.02236938476563 10.11684894561768 L 7.277962207794189 19.63595008850098 C 6.978705406188965 19.92746543884277 6.589272975921631 20.08779907226563 6.179599761962891 20.08779907226563 Z" stroke="none" fill="#fff"/>
        </g>
      </g>
    </g>
  </g>
</svg>
