<svg id="Logout" xmlns="http://www.w3.org/2000/svg" width="28.846" height="28.112" viewBox="0 0 28.846 28.112">
  <rect id="Rectangle_6440" data-name="Rectangle 6440" width="28.111" height="28.111" transform="translate(0.508 0)" fill="none"/>
  <g id="Group_18271" data-name="Group 18271" transform="translate(0 1.877)">
    <path id="Path_38269" data-name="Path 38269" d="M275.042,55.752a4.5,4.5,0,0,1-4.5-4.5V35.5a4.5,4.5,0,0,1,4.5-4.5h8.439a4.5,4.5,0,0,1,4.5,4.5v.564a1.125,1.125,0,0,1-2.25,0V35.5a2.252,2.252,0,0,0-2.25-2.248h-8.439a2.252,2.252,0,0,0-2.25,2.25V51.252a2.252,2.252,0,0,0,2.25,2.25h8.439a2.252,2.252,0,0,0,2.25-2.248v-.564a1.125,1.125,0,0,1,2.25,0v.564a4.5,4.5,0,0,1-4.5,4.5Z" transform="translate(-270.542 -31)" fill="#fff"/>
    <path id="Path_38270" data-name="Path 38270" d="M298.626,54.312a1.1,1.1,0,0,1-.78-.345,1.118,1.118,0,0,1,0-1.616l4.092-3.964H285.418a1.125,1.125,0,0,1,0-2.25h16.473l-4.33-4.3a1.116,1.116,0,0,1,0-1.612,1.116,1.116,0,0,1,1.616,0l5.83,5.972v.163l.188.284a1.227,1.227,0,0,1,.205.671.952.952,0,0,1-.184.64l-.21.294v.172l-5.6,5.539A1.1,1.1,0,0,1,298.626,54.312Z" transform="translate(-276.558 -34.886)" fill="#fff"/>
  </g>
</svg>
