<svg id="Logo" xmlns="http://www.w3.org/2000/svg" width="121.668" height="70" viewBox="0 0 121.668 70">
  <g id="Group_18367" data-name="Group 18367" transform="translate(0 38.334)">
    <g id="Group_18365" data-name="Group 18365">
      <path id="Path_38305" data-name="Path 38305" d="M34.756,231.741a3.476,3.476,0,0,1-2.464-.965,3.6,3.6,0,0,1-1.143-2.438l-.812-13.727h4.355l.432,12.076,5.549-12.076h4.813l-8.253,17.13Z" transform="translate(-30.337 -214.598)" fill="#283a45"/>
      <path id="Path_38306" data-name="Path 38306" d="M59.422,236.449a5.156,5.156,0,0,1-2.787-.826,4.354,4.354,0,0,1-1.428-1.93,7.628,7.628,0,0,1,7.086-10.083h7.365L66.545,236.5Zm4.927-7.949h-.013l.318-1.359H62.686a3.9,3.9,0,0,0-2.552.851,3.457,3.457,0,0,0-1.232,1.829q-.864,2.959,1.752,3h2.667Z" transform="translate(-43.259 -219.357)" fill="#283a45"/>
      <path id="Path_38307" data-name="Path 38307" d="M87.679,214.584h4.191l-3.251,12.749a.765.765,0,0,0,.153.571.663.663,0,0,0,.546.254H91.6l-.9,3.568H87.844a3.326,3.326,0,0,1-2.768-1.321,3.673,3.673,0,0,1-.7-3.072Z" transform="translate(-58.87 -214.584)" fill="#283a45"/>
      <path id="Path_38308" data-name="Path 38308" d="M104.586,223.558h4.152l-2.07,8.533a.766.766,0,0,0,.152.572.629.629,0,0,0,.533.254h2.882l2.4-9.358H116.8l-3.238,12.9h-3.771l-.013.013h-3.923a3.2,3.2,0,0,1-2.7-1.321,3.586,3.586,0,0,1-.635-3.06Z" transform="translate(-68.452 -219.329)" fill="#283a45"/>
      <path id="Path_38309" data-name="Path 38309" d="M136.4,236.449a5.154,5.154,0,0,1-2.787-.826,4.358,4.358,0,0,1-1.429-1.93,7.628,7.628,0,0,1,7.086-10.083h4.2a3.023,3.023,0,0,1,2.559,1.137,2.85,2.85,0,0,1,.3,2.267l-.026.127-1.13,4.622h-7.543q-.623-.089-.641-.927a2.978,2.978,0,0,1,.527-1.689,1.988,1.988,0,0,1,1.588-.94h2.832l.267-1.066h-2.628a3.882,3.882,0,0,0-2.464.851,3.457,3.457,0,0,0-1.232,1.829q-.737,2.908,1.752,3h7.3l-.889,3.683Z" transform="translate(-83.962 -219.357)" fill="#283a45"/>
      <path id="Path_38310" data-name="Path 38310" d="M182.115,214.611h8.432a3.592,3.592,0,0,1,2.907,1.333,3.382,3.382,0,0,1,.737,3.061q-.369,1.511-.616,2.514t-.451,1.866a3.751,3.751,0,0,1-3.657,2.832l-8.889-.038a.012.012,0,0,1,.013-.013h0q-.012.039-.19.787t-.419,1.765q-.254,1.079-.464,1.955c-.14.585-.227.94-.261,1.067h-4.292q.991-4.076,1.645-6.762t1.187-4.87q.532-2.183.648-2.667A3.712,3.712,0,0,1,182.115,214.611Zm-.368,7.619h7.162a.5.5,0,0,0,.52-.355l.712-2.743a.508.508,0,0,0-.508-.6H183a.506.506,0,0,0-.3.115.55.55,0,0,0-.2.3l-.241,1.029Q182.077,220.8,181.746,222.23Z" transform="translate(-106.814 -214.598)" fill="#283a45"/>
      <path id="Path_38311" data-name="Path 38311" d="M217.353,214.584h4.191l-3.25,12.749a.763.763,0,0,0,.152.571.663.663,0,0,0,.546.254h2.285l-.9,3.568h-2.857a3.326,3.326,0,0,1-2.768-1.321,3.671,3.671,0,0,1-.7-3.072Z" transform="translate(-127.44 -214.584)" fill="#283a45"/>
      <path id="Path_38312" data-name="Path 38312" d="M233.157,223.558h4.152l-2.07,8.533a.764.764,0,0,0,.152.572.628.628,0,0,0,.533.254h2.882l2.4-9.358h4.165l-3.238,12.9h-3.771l-.013.013h-3.923a3.2,3.2,0,0,1-2.7-1.321,3.586,3.586,0,0,1-.635-3.06Z" transform="translate(-136.438 -219.329)" fill="#283a45"/>
      <path id="Path_38313" data-name="Path 38313" d="M257.225,236.466l.863-3.5H264.7q1.053.089,1.27-.66.025-.812-1.219-.736h-1.866a3.739,3.739,0,0,1-2.946-1.244,3.86,3.86,0,0,1-.635-3.34q1.118-3.682,5.638-3.415h7.035l-.825,3.365H264.31q-.775-.038-.889.558a.532.532,0,0,0,.33.622,2.534,2.534,0,0,0,1.054.115l1.663-.051q2.349.077,3.111,1.334a4.777,4.777,0,0,1,.407,3.339q-.775,3.76-5.156,3.619Z" transform="translate(-150.312 -219.323)" fill="#283a45"/>
    </g>
    <g id="Group_18366" data-name="Group 18366" transform="translate(15.328 22.895)">
      <path id="Path_38314" data-name="Path 38314" d="M69.131,265.384H66.962l-1.156,6.578H63.878l1.156-6.578H62.866l.325-1.856h6.265Z" transform="translate(-62.866 -263.359)" fill="#0097df"/>
      <path id="Path_38315" data-name="Path 38315" d="M125.951,263.528l-1.482,8.434h-1.928l1.482-8.434Z" transform="translate(-94.421 -263.359)" fill="#0097df"/>
      <path id="Path_38316" data-name="Path 38316" d="M183.841,266.54a3.232,3.232,0,0,1-3.458,2.771h-1.241l-.47,2.651h-1.928l1.482-8.434h3.048A2.481,2.481,0,0,1,183.841,266.54Zm-2.88-1.2h-1.12l-.385,2.169h1.121a1.273,1.273,0,0,0,1.337-1.085C182.034,265.793,181.769,265.335,180.961,265.335Z" transform="translate(-123.083 -263.359)" fill="#0097df"/>
      <path id="Path_38317" data-name="Path 38317" d="M238.058,269.857l1.759-.9a1.484,1.484,0,0,0,1.615,1.133c.819,0,1.168-.338,1.241-.711.108-.53-.434-.747-1.374-1.06-1.374-.458-2.446-1.132-2.169-2.76a2.942,2.942,0,0,1,3.144-2.385,2.883,2.883,0,0,1,2.892,1.9l-1.687.892a1.4,1.4,0,0,0-1.373-.94c-.614,0-.94.29-1.012.639-.108.506.4.747,1.3,1.072,1.253.446,2.59.964,2.265,2.807-.277,1.579-1.6,2.4-3.4,2.4S238.359,271.1,238.058,269.857Z" transform="translate(-155.505 -263.17)" fill="#0097df"/>
    </g>
  </g>
  <g id="Group_18372" data-name="Group 18372" transform="translate(5.01 0)">
    <g id="Group_18370" data-name="Group 18370" transform="translate(36.049)">
      <g id="Group_18368" data-name="Group 18368">
        <path id="Path_38318" data-name="Path 38318" d="M133.765,164.384a5.721,5.721,0,0,1-4.059-1.591c-1.131-1.059-12.233-29.264-12.233-29.264l7.653-.3,12.72,31.152Z" transform="translate(-117.473 -133.232)" fill="#283a45"/>
      </g>
      <g id="Group_18369" data-name="Group 18369" transform="translate(15.471 2.927)">
        <path id="Path_38319" data-name="Path 38319" d="M162.087,139.443H175.98a5.923,5.923,0,0,1,4.792,2.2,5.579,5.579,0,0,1,1.213,5.042q-.608,2.49-1.016,4.144c-.271,1.1-.52,2.127-.741,3.075a5.981,5.981,0,0,1-2.177,3.347,6.045,6.045,0,0,1-3.849,1.318l-14.648-.061a.019.019,0,0,1,.021-.022h0q-.021.063-.314,1.3t-.691,2.909q-.42,1.779-.764,3.222t-.429,1.758h-7.072q1.633-6.718,2.71-11.142t1.956-8.024q.878-3.6,1.067-4.394Q157.713,139.443,162.087,139.443ZM161.481,152h11.8a.831.831,0,0,0,.858-.586l1.172-4.519a.837.837,0,0,0-.837-.984H163.551a.836.836,0,0,0-.5.189.9.9,0,0,0-.335.5l-.4,1.695Q162.023,149.631,161.481,152Z" transform="translate(-150.306 -139.443)" fill="#0097df"/>
      </g>
    </g>
    <g id="Group_18371" data-name="Group 18371" transform="translate(0 0.534)">
      <path id="Path_38320" data-name="Path 38320" d="M40.97,137.266l35.807-.332c-.356-.885-.7-1.746-1.03-2.568Z" transform="translate(-40.97 -134.366)" fill="#283a45"/>
      <path id="Path_38321" data-name="Path 38321" d="M59.163,148.359l29.46-.038c-.383-.94-.767-1.885-1.145-2.82Z" transform="translate(-50.59 -140.254)" fill="#283a45"/>
      <path id="Path_38322" data-name="Path 38322" d="M85.8,159.446l19.174.257c-.411-.984-.839-2.017-1.275-3.077Z" transform="translate(-64.677 -146.137)" fill="#283a45"/>
      <path id="Path_38323" data-name="Path 38323" d="M96.2,169l16.638,2.083c-.419-.932-.912-2.068-1.453-3.34Z" transform="translate(-70.174 -152.014)" fill="#283a45"/>
    </g>
  </g>
</svg>
