<svg xmlns="http://www.w3.org/2000/svg" width="107.035" height="40" viewBox="0 0 107.035 40">
  <g id="Logo" transform="translate(-5.01)">
    <g id="Group_18372" data-name="Group 18372" transform="translate(5.01 0)">
      <g id="Group_18370" data-name="Group 18370" transform="translate(46.288)">
        <g id="Group_18368" data-name="Group 18368">
          <path id="Path_38318" data-name="Path 38318" d="M138.393,173.232a7.346,7.346,0,0,1-5.212-2.043c-1.452-1.36-15.708-37.576-15.708-37.576l9.826-.381,16.332,40Z" transform="translate(-117.473 -133.232)" fill="#283a45"/>
        </g>
        <g id="Group_18369" data-name="Group 18369" transform="translate(19.866 3.758)">
          <path id="Path_38319" data-name="Path 38319" d="M165.434,139.443h17.838a7.605,7.605,0,0,1,6.153,2.82,7.163,7.163,0,0,1,1.558,6.475q-.78,3.2-1.3,5.321c-.347,1.416-.667,2.731-.952,3.948a7.68,7.68,0,0,1-2.8,4.3A7.762,7.762,0,0,1,180.989,164l-18.808-.079a.024.024,0,0,1,.027-.028h0q-.027.081-.4,1.665t-.887,3.735q-.539,2.284-.981,4.137t-.551,2.257h-9.081q2.1-8.626,3.48-14.307t2.512-10.3q1.127-4.621,1.37-5.642Q159.817,139.444,165.434,139.443Zm-.779,16.119h15.151a1.066,1.066,0,0,0,1.1-.752l1.5-5.8a1.075,1.075,0,0,0-1.075-1.263H167.313a1.074,1.074,0,0,0-.645.242,1.157,1.157,0,0,0-.43.645l-.51,2.176Q165.351,152.525,164.655,155.562Z" transform="translate(-150.306 -139.443)" fill="#0097df"/>
        </g>
      </g>
      <g id="Group_18371" data-name="Group 18371" transform="translate(0 0.686)">
        <path id="Path_38320" data-name="Path 38320" d="M40.97,138.09l45.977-.427c-.457-1.137-.9-2.242-1.322-3.3Z" transform="translate(-40.97 -134.366)" fill="#283a45"/>
        <path id="Path_38321" data-name="Path 38321" d="M59.163,149.171l37.827-.049c-.492-1.207-.985-2.421-1.47-3.621Z" transform="translate(-48.155 -138.764)" fill="#283a45"/>
        <path id="Path_38322" data-name="Path 38322" d="M85.8,160.247l24.62.33c-.528-1.264-1.077-2.59-1.637-3.951Z" transform="translate(-58.677 -143.158)" fill="#283a45"/>
        <path id="Path_38323" data-name="Path 38323" d="M96.2,169.354l21.364,2.674c-.538-1.2-1.171-2.655-1.866-4.289Z" transform="translate(-62.783 -147.547)" fill="#283a45"/>
      </g>
    </g>
  </g>
</svg>
